<svg width="160" height="51" viewBox="0 0 160 51" fill="none" xmlns="http://www.w3.org/2000/svg">
<path d="M55.092 37V13.6H70.212V18.784H61.284V22.456H68.916V27.64H61.284V31.816H70.572V37H55.092ZM80.7923 37.432C78.5603 37.432 76.7723 36.592 75.4283 34.912C74.1083 33.208 73.4483 30.904 73.4483 28C73.4483 26.032 73.7963 24.352 74.4923 22.96C75.2123 21.544 76.1363 20.464 77.2643 19.72C78.3923 18.952 79.5683 18.568 80.7923 18.568C81.7763 18.568 82.5803 18.736 83.2043 19.072C83.8523 19.384 84.4403 19.816 84.9683 20.368L84.7523 17.776V11.944H90.9443V37H85.9043L85.4723 35.344H85.3283C84.7283 35.944 84.0203 36.448 83.2043 36.856C82.3883 37.24 81.5843 37.432 80.7923 37.432ZM82.4483 32.392C82.9283 32.392 83.3483 32.308 83.7083 32.14C84.0923 31.948 84.4403 31.6 84.7523 31.096V24.472C84.3923 24.136 83.9963 23.908 83.5643 23.788C83.1323 23.668 82.7123 23.608 82.3043 23.608C81.6563 23.608 81.0683 23.932 80.5403 24.58C80.0363 25.228 79.7843 26.344 79.7843 27.928C79.7843 29.536 80.0243 30.688 80.5043 31.384C80.9843 32.056 81.6323 32.392 82.4483 32.392ZM103.115 37.432C101.579 37.432 100.127 37.06 98.7592 36.316C97.4152 35.572 96.3112 34.504 95.4472 33.112C94.6072 31.696 94.1872 29.992 94.1872 28C94.1872 26.008 94.6072 24.316 95.4472 22.924C96.3112 21.508 97.4152 20.428 98.7592 19.684C100.127 18.94 101.579 18.568 103.115 18.568C104.651 18.568 106.091 18.94 107.435 19.684C108.803 20.428 109.907 21.508 110.747 22.924C111.611 24.316 112.043 26.008 112.043 28C112.043 29.992 111.611 31.696 110.747 33.112C109.907 34.504 108.803 35.572 107.435 36.316C106.091 37.06 104.651 37.432 103.115 37.432ZM103.115 32.464C104.051 32.464 104.711 32.068 105.095 31.276C105.503 30.46 105.707 29.368 105.707 28C105.707 26.632 105.503 25.552 105.095 24.76C104.711 23.944 104.051 23.536 103.115 23.536C102.179 23.536 101.507 23.944 101.099 24.76C100.715 25.552 100.523 26.632 100.523 28C100.523 29.368 100.715 30.46 101.099 31.276C101.507 32.068 102.179 32.464 103.115 32.464ZM120.812 37.432C119.42 37.432 118.316 37.156 117.5 36.604C116.708 36.028 116.132 35.236 115.772 34.228C115.436 33.196 115.268 32.008 115.268 30.664V11.944H121.46V30.88C121.46 31.48 121.568 31.9 121.784 32.14C122.024 32.356 122.252 32.464 122.468 32.464C122.588 32.464 122.684 32.464 122.756 32.464C122.852 32.44 122.972 32.416 123.116 32.392L123.836 36.928C123.524 37.072 123.116 37.192 122.612 37.288C122.108 37.384 121.508 37.432 120.812 37.432ZM133.982 37.432C132.446 37.432 130.994 37.06 129.626 36.316C128.282 35.572 127.178 34.504 126.314 33.112C125.474 31.696 125.054 29.992 125.054 28C125.054 26.008 125.474 24.316 126.314 22.924C127.178 21.508 128.282 20.428 129.626 19.684C130.994 18.94 132.446 18.568 133.982 18.568C135.518 18.568 136.958 18.94 138.302 19.684C139.67 20.428 140.774 21.508 141.614 22.924C142.478 24.316 142.91 26.008 142.91 28C142.91 29.992 142.478 31.696 141.614 33.112C140.774 34.504 139.67 35.572 138.302 36.316C136.958 37.06 135.518 37.432 133.982 37.432ZM133.982 32.464C134.918 32.464 135.578 32.068 135.962 31.276C136.37 30.46 136.574 29.368 136.574 28C136.574 26.632 136.37 25.552 135.962 24.76C135.578 23.944 134.918 23.536 133.982 23.536C133.046 23.536 132.374 23.944 131.966 24.76C131.582 25.552 131.39 26.632 131.39 28C131.39 29.368 131.582 30.46 131.966 31.276C132.374 32.068 133.046 32.464 133.982 32.464ZM146.135 37V19H151.175L151.607 22.096H151.751C152.423 20.872 153.215 19.984 154.127 19.432C155.063 18.856 155.975 18.568 156.863 18.568C157.415 18.568 157.859 18.604 158.195 18.676C158.555 18.724 158.855 18.808 159.095 18.928L158.087 24.256C157.775 24.184 157.463 24.124 157.151 24.076C156.839 24.004 156.479 23.968 156.071 23.968C155.423 23.968 154.739 24.196 154.019 24.652C153.323 25.084 152.759 25.864 152.327 26.992V37H146.135Z" fill="white"/>
<g filter="url(#filter0_d_414_573)">
<circle cx="24.5" cy="24" r="20" fill="white"/>
</g>
<path d="M16.329 30.5582L20.8466 13.6984L32.6024 16.8483L31.7156 20.1577L24.0349 18.0997L23.1084 21.5573L30.1882 23.4543L29.2992 26.7719L22.2194 24.8749L21.2908 28.3407L28.9715 30.3988L28.0848 33.7081L16.329 30.5582Z" fill="#0D0D0D"/>
<defs>
<filter id="filter0_d_414_573" x="0.5" y="3" width="48" height="48" filterUnits="userSpaceOnUse" color-interpolation-filters="sRGB">
<feFlood flood-opacity="0" result="BackgroundImageFix"/>
<feColorMatrix in="SourceAlpha" type="matrix" values="0 0 0 0 0 0 0 0 0 0 0 0 0 0 0 0 0 0 127 0" result="hardAlpha"/>
<feOffset dy="3"/>
<feGaussianBlur stdDeviation="2"/>
<feComposite in2="hardAlpha" operator="out"/>
<feColorMatrix type="matrix" values="0 0 0 0 0 0 0 0 0 0 0 0 0 0 0 0 0 0 0.25 0"/>
<feBlend mode="normal" in2="BackgroundImageFix" result="effect1_dropShadow_414_573"/>
<feBlend mode="normal" in="SourceGraphic" in2="effect1_dropShadow_414_573" result="shape"/>
</filter>
</defs>
</svg>
