<svg width="24" height="24" viewBox="0 0 24 24" fill="none" xmlns="http://www.w3.org/2000/svg">
<path d="M21.6291 -0.00011942C22.848 -0.00011942 23.9726 0.910166 23.9726 2.18302C23.9726 2.89274 23.6914 3.57588 23.37 4.20502C22.3251 6.18674 18.816 12.7362 17.142 14.2765C16.3251 15.0402 15.3609 15.4953 14.2226 15.4953C11.9589 15.4953 10.1109 13.5667 10.1109 11.3167C10.1109 10.2453 10.5531 9.20045 11.3426 8.47702L19.8874 0.722452C20.3563 0.293881 20.9726 -0.000976562 21.6283 -0.000976562L21.6291 -0.00011942ZM9.45514 13.8479C10.1511 15.2005 11.424 16.2187 12.8974 16.607L12.9111 17.5576C12.9917 21.3745 10.3397 23.9999 6.50914 23.9999C1.96886 23.9999 0 20.3836 0 16.2719C0.495429 16.607 2.22343 17.9862 2.78571 17.9862C3.12086 17.9862 3.402 17.7985 3.522 17.4907C4.66029 14.5173 6.44143 13.9816 9.45514 13.8479Z" fill="#E2E2E2"/>
</svg>
