<svg width="13" height="14" viewBox="0 0 13 14" fill="none" xmlns="http://www.w3.org/2000/svg">
<path d="M1.1875 13.0096C0.904167 13.0096 0.65625 12.9159 0.44375 12.7284C0.23125 12.5409 0.125 12.3221 0.125 12.0721V2.38464C0.125 2.13464 0.23125 1.91589 0.44375 1.72839C0.65625 1.54089 0.904167 1.44714 1.1875 1.44714H2.33854V0.509644H3.48958V1.44714H9.51042V0.509644H10.6615V1.44714H11.8125C12.0958 1.44714 12.3437 1.54089 12.5562 1.72839C12.7687 1.91589 12.875 2.13464 12.875 2.38464V12.0721C12.875 12.3221 12.7687 12.5409 12.5562 12.7284C12.3437 12.9159 12.0958 13.0096 11.8125 13.0096H1.1875ZM1.1875 12.0721H11.8125V5.35339H1.1875V12.0721ZM1.1875 4.41589H11.8125V2.38464H1.1875V4.41589Z" fill="#3E3E3E"/>
</svg>
