<svg width="16" height="16" viewBox="0 0 16 16" fill="none" xmlns="http://www.w3.org/2000/svg">
<path d="M14.5625 15.4673C12.8681 15.4673 11.184 15.0506 9.51042 14.2173C7.83681 13.384 6.33333 12.3006 5 10.9673C3.66667 9.63395 2.58333 8.13048 1.75 6.45687C0.916667 4.78326 0.5 3.09923 0.5 1.40479C0.5 1.1409 0.590278 0.918674 0.770833 0.738119C0.951389 0.557563 1.17361 0.467285 1.4375 0.467285H4.35417C4.54861 0.467285 4.71875 0.533257 4.86458 0.665202C5.01042 0.797146 5.10417 0.97423 5.14583 1.19645L5.70833 3.82145C5.73611 4.0159 5.73264 4.19298 5.69792 4.3527C5.66319 4.51242 5.59028 4.64784 5.47917 4.75895L3.39583 6.86312C4.17361 8.15479 5.04514 9.27979 6.01042 10.2381C6.97569 11.1965 8.06944 12.009 9.29167 12.6756L11.2708 10.634C11.4097 10.4812 11.5694 10.3735 11.75 10.311C11.9306 10.2485 12.1111 10.2381 12.2917 10.2798L14.7708 10.8215C14.9792 10.8631 15.1528 10.9673 15.2917 11.134C15.4306 11.3006 15.5 11.4951 15.5 11.7173V14.5298C15.5 14.7937 15.4097 15.0159 15.2292 15.1965C15.0486 15.377 14.8264 15.4673 14.5625 15.4673Z" fill="#027373"/>
</svg>
