<svg width="32" height="32" viewBox="0 0 32 32" fill="none" xmlns="http://www.w3.org/2000/svg">
<path d="M14.9334 16.0001C14.9334 13.4823 13.0166 11.4286 10.6668 11.4286C8.31689 11.4286 6.40009 13.4823 6.40009 16.0001C6.40009 18.5178 8.31689 20.5715 10.6668 20.5715C13.0166 20.5715 14.9334 18.5178 14.9334 16.0001ZM27.7334 25.1429C27.7334 23.8926 26.767 22.8572 25.6001 22.8572C24.4332 22.8572 23.4668 23.8926 23.4668 25.1429C23.4668 26.4103 24.4332 27.4286 25.6001 27.4286C26.783 27.4286 27.7334 26.3932 27.7334 25.1429ZM27.7334 6.85719C27.7334 5.60691 26.767 4.57148 25.6001 4.57148C24.4332 4.57148 23.4668 5.60691 23.4668 6.85719C23.4668 8.12462 24.4332 9.14291 25.6001 9.14291C26.783 9.14291 27.7334 8.10748 27.7334 6.85719ZM21.3334 14.3749V17.6789C21.3334 17.9109 21.167 18.1795 20.9505 18.2149L18.367 18.6435C18.2337 19.1075 18.0502 19.5543 17.8337 20.0012C18.3009 20.7155 18.8001 21.3761 19.3334 22.0549C19.4006 22.1623 19.4497 22.2686 19.4497 22.4126C19.4497 22.5372 19.4166 22.6629 19.3334 22.7521C18.9996 23.2343 17.1329 25.4126 16.6497 25.4126C16.5164 25.4126 16.4001 25.3589 16.2998 25.2881L14.383 23.6812C13.966 23.9132 13.55 24.0915 13.0998 24.2343C13.0166 25.1452 12.9334 26.1269 12.7169 27.0023C12.6497 27.2526 12.4502 27.4309 12.2166 27.4309H9.11689C8.88329 27.4309 8.64969 27.2343 8.61662 26.9841L8.23369 24.2515C7.80062 24.1086 7.38356 23.9121 6.98356 23.6983L5.01662 25.2881C4.93342 25.3772 4.80009 25.4126 4.68276 25.4126C4.54942 25.4126 4.43316 25.3589 4.33289 25.2698C3.89982 24.8412 1.93289 22.9303 1.93289 22.4126C1.93289 22.2881 1.98302 22.1806 2.04916 22.0732C2.53236 21.3943 3.03262 20.7338 3.51582 20.0378C3.28222 19.5555 3.08276 19.0732 2.93236 18.5738L0.399023 18.1452C0.165423 18.1098 -0.000976562 17.8778 -0.000976562 17.6275V14.3235C-0.000976562 14.0915 0.165423 13.8229 0.381957 13.7875L2.96542 13.3589C3.09876 12.8949 3.28222 12.4481 3.49876 12.0012C3.03156 11.2869 2.53236 10.6263 1.99902 9.94748C1.93182 9.84005 1.88276 9.71548 1.88276 9.58977C1.88276 9.46405 1.91582 9.33948 1.99902 9.23205C2.33289 8.74977 4.19956 6.58977 4.68276 6.58977C4.81609 6.58977 4.93236 6.64348 5.03262 6.71434L6.94942 8.32119C7.36649 8.08919 7.78249 7.91091 8.23262 7.74977C8.31582 6.85719 8.39902 5.87434 8.61556 5.00005C8.68276 4.74977 8.88222 4.57148 9.11582 4.57148H12.2156C12.4492 4.57148 12.6828 4.76805 12.7158 5.01834L13.0988 7.75091C13.5318 7.89377 13.9489 8.09034 14.3489 8.30405L16.3158 6.71434C16.4161 6.6252 16.5324 6.58977 16.6497 6.58977C16.783 6.58977 16.8993 6.64348 16.9996 6.73262C17.4326 7.16119 19.3996 9.09034 19.3996 9.58977C19.3996 9.71434 19.3494 9.82177 19.2833 9.92919C18.8001 10.6252 18.2998 11.2686 17.8337 11.9646C18.0502 12.4469 18.2508 12.9292 18.4001 13.4286L20.9334 13.8389C21.167 13.8926 21.3334 14.1246 21.3334 14.3749ZM32.0001 23.8926V26.3932C32.0001 26.6606 29.8497 26.9109 29.5169 26.9463C29.3836 27.2858 29.2172 27.5886 29.0166 27.8743C29.167 28.232 29.8668 30.0172 29.8668 30.3383C29.8668 30.392 29.8497 30.4275 29.7996 30.4629C29.6001 30.5875 27.8166 31.7303 27.7334 31.7303C27.5169 31.7303 26.2668 29.944 26.1004 29.6766C25.934 29.6949 25.7665 29.712 25.6001 29.712C25.4337 29.712 25.2662 29.6938 25.0998 29.6766C24.9334 29.944 23.6833 31.7303 23.4668 31.7303C23.3836 31.7303 21.6001 30.5875 21.4006 30.4629C21.3505 30.4275 21.3334 30.3738 21.3334 30.3383C21.3334 30.0343 22.0332 28.2309 22.1836 27.8743C21.9841 27.5886 21.8166 27.2846 21.6833 26.9463C21.3494 26.9109 19.2001 26.6606 19.2001 26.3932V23.8926C19.2001 23.6252 21.3505 23.3749 21.6833 23.3395C21.8166 23.0183 21.983 22.6972 22.1836 22.4115C22.0332 22.0538 21.3334 20.2503 21.3334 19.9475C21.3334 19.9121 21.3505 19.8583 21.4006 19.8229C21.6001 19.7155 23.3836 18.5726 23.4668 18.5726C23.6833 18.5726 24.9334 20.3406 25.0998 20.6081C25.2662 20.5898 25.4337 20.5726 25.6001 20.5726C25.7665 20.5726 25.934 20.5909 26.1004 20.6081C26.5676 19.9121 27.0668 19.2149 27.6332 18.6081L27.7334 18.5726C27.8166 18.5726 29.6001 19.6972 29.7996 19.8229C29.8497 19.8583 29.8668 19.9121 29.8668 19.9475C29.8668 20.2686 29.167 22.0549 29.0166 22.4115C29.2161 22.6972 29.3836 23.0183 29.5169 23.3395C29.8508 23.3749 32.0001 23.6252 32.0001 23.8926ZM32.0001 5.60691V8.10634C32.0001 8.37377 29.8497 8.62405 29.5169 8.65948C29.3836 8.99891 29.2172 9.30177 29.0166 9.58748C29.167 9.94519 29.8668 11.7303 29.8668 12.0515C29.8668 12.1052 29.8497 12.1406 29.7996 12.1761C29.6001 12.3006 27.8166 13.4435 27.7334 13.4435C27.5169 13.4435 26.2668 11.6572 26.1004 11.3898C25.934 11.4081 25.7665 11.4252 25.6001 11.4252C25.4337 11.4252 25.2662 11.4069 25.0998 11.3898C24.9334 11.6572 23.6833 13.4435 23.4668 13.4435C23.3836 13.4435 21.6001 12.3006 21.4006 12.1761C21.3505 12.1406 21.3334 12.0869 21.3334 12.0515C21.3334 11.7475 22.0332 9.94405 22.1836 9.58748C21.9841 9.30177 21.8166 8.99777 21.6833 8.65948C21.3494 8.62405 19.2001 8.37377 19.2001 8.10634V5.60577C19.2001 5.33834 21.3505 5.08805 21.6833 5.05262C21.8166 4.73148 21.983 4.41034 22.1836 4.12462C22.0332 3.76691 21.3334 1.96348 21.3334 1.66062C21.3334 1.6252 21.3505 1.57148 21.4006 1.53605C21.6001 1.42862 23.3836 0.285767 23.4668 0.285767C23.6833 0.285767 24.9334 2.05377 25.0998 2.32119C25.2662 2.30291 25.4337 2.28577 25.6001 2.28577C25.7665 2.28577 25.934 2.30405 26.1004 2.32119C26.5676 1.62519 27.0668 0.928052 27.6332 0.321195L27.7334 0.285767C27.8166 0.285767 29.6001 1.41034 29.7996 1.53605C29.8497 1.57148 29.8668 1.6252 29.8668 1.66062C29.8668 1.98177 29.167 3.76805 29.0166 4.12462C29.2161 4.41034 29.3836 4.73148 29.5169 5.05262C29.8508 5.08805 32.0001 5.33948 32.0001 5.60691Z" fill="#E2E2E2"/>
</svg>
