<svg width="28" height="28" viewBox="0 0 28 28" fill="none" xmlns="http://www.w3.org/2000/svg">
<path d="M26.25 21C26.25 21 19.0312 21 17.5 21C15.9688 21 19.25 26.25 19.25 26.25C19.25 27.216 18.466 28 17.5 28H10.5C9.534 28 8.75 27.216 8.75 26.25C8.75 26.25 12.0855 21 10.5 21C8.9145 21 1.75 21 1.75 21C0.784 21 0 20.216 0 19.25V1.75C0 0.784 0.784 0 1.75 0H26.25C27.216 0 28 0.784 28 1.75V19.25C28 20.216 27.216 21 26.25 21ZM14 20.125C14.966 20.125 15.75 19.341 15.75 18.375C15.75 17.409 14.966 16.625 14 16.625C13.034 16.625 12.25 17.409 12.25 18.375C12.25 19.341 13.034 20.125 14 20.125ZM26.25 3.5C26.25 2.534 25.466 1.75 24.5 1.75H3.5C2.534 1.75 1.75 2.534 1.75 3.5V14C1.75 14.966 2.534 15.75 3.5 15.75H24.5C25.466 15.75 26.25 14.966 26.25 14V3.5Z" fill="#E2E2E2"/>
</svg>
