<svg width="16" height="16" viewBox="0 0 16 16" fill="none" xmlns="http://www.w3.org/2000/svg">
<path d="M6.21474 15.3813C4.20646 14.8432 2.68776 13.6829 1.65865 11.9004C0.629535 10.118 0.384037 8.22259 0.922154 6.21431C1.46027 4.20603 2.62057 2.68733 4.40305 1.65821C6.18552 0.6291 8.0809 0.383601 10.0892 0.921718C10.1963 0.950418 10.3092 0.984259 10.4279 1.02324C10.5466 1.06222 10.6979 1.11352 10.8817 1.17713C10.2849 1.47642 9.76836 1.90481 9.33198 2.46233C8.8956 3.01984 8.58414 3.6467 8.39759 4.3429C8.07472 5.54787 8.22202 6.6851 8.83949 7.75458C9.45696 8.82407 10.3682 9.52025 11.5731 9.84312C12.2693 10.0297 12.9653 10.0834 13.6609 10.0043C14.3565 9.92524 14.9777 9.72219 15.5246 9.39517C15.4949 9.55942 15.47 9.69265 15.4498 9.79486C15.4295 9.89706 15.4069 9.99503 15.3818 10.0887C14.8437 12.097 13.6834 13.6157 11.9009 14.6448C10.1184 15.674 8.22302 15.9195 6.21474 15.3813Z" fill="#626161"/>
</svg>
