<svg width="41" height="36" viewBox="0 0 41 36" fill="none" xmlns="http://www.w3.org/2000/svg">
<path d="M34.2002 11C32.6669 11 31.3669 10.4667 30.3002 9.4C29.2335 8.33333 28.7002 7.03333 28.7002 5.5C28.7002 3.96667 29.2335 2.66667 30.3002 1.6C31.3669 0.533333 32.6669 0 34.2002 0C35.7335 0 37.0335 0.533333 38.1002 1.6C39.1669 2.66667 39.7002 3.96667 39.7002 5.5C39.7002 7.03333 39.1669 8.33333 38.1002 9.4C37.0335 10.4667 35.7335 11 34.2002 11ZM3.2002 35.5C2.4002 35.5 1.7002 35.2 1.1002 34.6C0.500195 34 0.200195 33.3 0.200195 32.5V6.5C0.200195 5.7 0.500195 5 1.1002 4.4C1.7002 3.8 2.4002 3.5 3.2002 3.5H24.9002C24.8002 4 24.7335 4.5 24.7002 5C24.6669 5.5 24.6835 6 24.7502 6.5C24.8835 7.66667 25.2085 8.75833 25.7252 9.775C26.2419 10.7917 26.9169 11.6833 27.7502 12.45L20.2002 17.4L3.2002 6.35V9.25L20.2002 20.4L29.9502 14C30.6169 14.3333 31.3002 14.5833 32.0002 14.75C32.7002 14.9167 33.4335 15 34.2002 15C35.3002 15 36.3585 14.8167 37.3752 14.45C38.3919 14.0833 39.3335 13.55 40.2002 12.85V32.5C40.2002 33.3 39.9002 34 39.3002 34.6C38.7002 35.2 38.0002 35.5 37.2002 35.5H3.2002Z" fill="black"/>
</svg>
