<svg width="30" height="44" viewBox="0 0 30 44" fill="none" xmlns="http://www.w3.org/2000/svg">
<g clip-path="url(#clip0_468_630)">
<path d="M7.75148 43.5C11.7527 43.5 15 40.252 15 36.25V29H7.75148C3.75028 29 0.50293 32.248 0.50293 36.25C0.50293 40.252 3.75028 43.5 7.75148 43.5Z" fill="#0ACF83"/>
<path d="M0.50293 21.75C0.50293 17.748 3.75028 14.5 7.75148 14.5H15V29H7.75148C3.75028 29 0.50293 25.752 0.50293 21.75Z" fill="#A259FF"/>
<path d="M0.50293 7.25C0.50293 3.248 3.75028 0 7.75148 0H15V14.5H7.75148C3.75028 14.5 0.50293 11.252 0.50293 7.25Z" fill="#F24E1E"/>
<path d="M15 0H22.2486C26.2498 0 29.4971 3.248 29.4971 7.25C29.4971 11.252 26.2498 14.5 22.2486 14.5H15V0Z" fill="#FF7262"/>
<path d="M29.4971 21.75C29.4971 25.752 26.2498 29 22.2486 29C18.2474 29 15 25.752 15 21.75C15 17.748 18.2474 14.5 22.2486 14.5C26.2498 14.5 29.4971 17.748 29.4971 21.75Z" fill="#1ABCFE"/>
</g>
<defs>
<clipPath id="clip0_468_630">
<rect width="29" height="43.5" fill="white" transform="translate(0.5)"/>
</clipPath>
</defs>
</svg>
