<svg width="24" height="24" viewBox="0 0 24 24" fill="none" xmlns="http://www.w3.org/2000/svg">
<path d="M0 2.4C0 1.08 1.08 0 2.4 0H21.6C22.926 0 24 1.074 24 2.4V4.8C24 6.126 22.926 7.2 21.6 7.2H2.4C1.074 7.2 0 6.126 0 4.8V2.4ZM0 10.8C0 9.48 1.08 8.4 2.4 8.4H21.6C22.926 8.4 24 9.474 24 10.8V13.2C24 14.526 22.926 15.6 21.6 15.6H2.4C1.074 15.6 0 14.526 0 13.2V10.8ZM0 19.2C0 17.88 1.08 16.8 2.4 16.8H21.6C22.926 16.8 24 17.874 24 19.2V21.6C24 22.926 22.926 24 21.6 24H2.4C1.074 24 0 22.926 0 21.6V19.2ZM14.4 2.4V4.8H16.8V2.4H14.4ZM19.2 2.4V4.8H21.6V2.4H19.2ZM14.4 10.8V13.2H16.8V10.8H14.4ZM19.2 10.8V13.2H21.6V10.8H19.2ZM14.4 19.2V21.6H16.8V19.2H14.4ZM19.2 19.2V21.6H21.6V19.2H19.2Z" fill="#E2E2E2"/>
</svg>
