<svg width="32" height="26" viewBox="0 0 32 26" fill="none" xmlns="http://www.w3.org/2000/svg">
<path d="M32.0001 3.075C30.8251 3.6 29.5561 3.95 28.2311 4.106C29.5871 3.293 30.6251 2.006 31.1181 0.475C29.8491 1.225 28.4431 1.775 26.9491 2.069C25.7491 0.794 24.0431 0 22.1551 0C18.5301 0 15.5921 2.938 15.5921 6.563C15.5921 7.075 15.6481 7.575 15.7611 8.057C10.3051 7.782 5.46714 5.169 2.23014 1.195C1.66714 2.164 1.34314 3.295 1.34314 4.495C1.34314 6.77 2.49914 8.782 4.26214 9.958C3.18714 9.927 2.17514 9.627 1.28714 9.139C1.28714 9.164 1.28714 9.195 1.28714 9.22C1.28714 12.401 3.55014 15.058 6.55614 15.657C6.00614 15.807 5.42514 15.888 4.82514 15.888C4.40014 15.888 3.99414 15.844 3.58814 15.769C4.42614 18.375 6.85114 20.275 9.71914 20.332C7.46914 22.094 4.64414 23.145 1.56314 23.145C1.03214 23.145 0.513141 23.114 -0.00585938 23.051C2.90714 24.92 6.35614 26.001 10.0631 26.001C22.1381 26.001 28.7441 15.995 28.7441 7.32C28.7441 7.033 28.7381 6.751 28.7251 6.47C30.0061 5.551 31.1191 4.395 32.0001 3.076V3.075Z" fill="black"/>
</svg>
