<svg width="159" height="51" viewBox="0 0 159 51" fill="none" xmlns="http://www.w3.org/2000/svg">
<path d="M54.592 37V13.6H69.712V18.784H60.784V22.456H68.416V27.64H60.784V31.816H70.072V37H54.592ZM80.2923 37.432C78.0603 37.432 76.2723 36.592 74.9283 34.912C73.6083 33.208 72.9483 30.904 72.9483 28C72.9483 26.032 73.2963 24.352 73.9923 22.96C74.7123 21.544 75.6363 20.464 76.7643 19.72C77.8923 18.952 79.0683 18.568 80.2923 18.568C81.2763 18.568 82.0803 18.736 82.7043 19.072C83.3523 19.384 83.9403 19.816 84.4683 20.368L84.2523 17.776V11.944H90.4443V37H85.4043L84.9723 35.344H84.8283C84.2283 35.944 83.5203 36.448 82.7043 36.856C81.8883 37.24 81.0843 37.432 80.2923 37.432ZM81.9483 32.392C82.4283 32.392 82.8483 32.308 83.2083 32.14C83.5923 31.948 83.9403 31.6 84.2523 31.096V24.472C83.8923 24.136 83.4963 23.908 83.0643 23.788C82.6323 23.668 82.2123 23.608 81.8043 23.608C81.1563 23.608 80.5683 23.932 80.0403 24.58C79.5363 25.228 79.2843 26.344 79.2843 27.928C79.2843 29.536 79.5243 30.688 80.0043 31.384C80.4843 32.056 81.1323 32.392 81.9483 32.392ZM102.615 37.432C101.079 37.432 99.6272 37.06 98.2592 36.316C96.9152 35.572 95.8112 34.504 94.9472 33.112C94.1072 31.696 93.6872 29.992 93.6872 28C93.6872 26.008 94.1072 24.316 94.9472 22.924C95.8112 21.508 96.9152 20.428 98.2592 19.684C99.6272 18.94 101.079 18.568 102.615 18.568C104.151 18.568 105.591 18.94 106.935 19.684C108.303 20.428 109.407 21.508 110.247 22.924C111.111 24.316 111.543 26.008 111.543 28C111.543 29.992 111.111 31.696 110.247 33.112C109.407 34.504 108.303 35.572 106.935 36.316C105.591 37.06 104.151 37.432 102.615 37.432ZM102.615 32.464C103.551 32.464 104.211 32.068 104.595 31.276C105.003 30.46 105.207 29.368 105.207 28C105.207 26.632 105.003 25.552 104.595 24.76C104.211 23.944 103.551 23.536 102.615 23.536C101.679 23.536 101.007 23.944 100.599 24.76C100.215 25.552 100.023 26.632 100.023 28C100.023 29.368 100.215 30.46 100.599 31.276C101.007 32.068 101.679 32.464 102.615 32.464ZM120.312 37.432C118.92 37.432 117.816 37.156 117 36.604C116.208 36.028 115.632 35.236 115.272 34.228C114.936 33.196 114.768 32.008 114.768 30.664V11.944H120.96V30.88C120.96 31.48 121.068 31.9 121.284 32.14C121.524 32.356 121.752 32.464 121.968 32.464C122.088 32.464 122.184 32.464 122.256 32.464C122.352 32.44 122.472 32.416 122.616 32.392L123.336 36.928C123.024 37.072 122.616 37.192 122.112 37.288C121.608 37.384 121.008 37.432 120.312 37.432ZM133.482 37.432C131.946 37.432 130.494 37.06 129.126 36.316C127.782 35.572 126.678 34.504 125.814 33.112C124.974 31.696 124.554 29.992 124.554 28C124.554 26.008 124.974 24.316 125.814 22.924C126.678 21.508 127.782 20.428 129.126 19.684C130.494 18.94 131.946 18.568 133.482 18.568C135.018 18.568 136.458 18.94 137.802 19.684C139.17 20.428 140.274 21.508 141.114 22.924C141.978 24.316 142.41 26.008 142.41 28C142.41 29.992 141.978 31.696 141.114 33.112C140.274 34.504 139.17 35.572 137.802 36.316C136.458 37.06 135.018 37.432 133.482 37.432ZM133.482 32.464C134.418 32.464 135.078 32.068 135.462 31.276C135.87 30.46 136.074 29.368 136.074 28C136.074 26.632 135.87 25.552 135.462 24.76C135.078 23.944 134.418 23.536 133.482 23.536C132.546 23.536 131.874 23.944 131.466 24.76C131.082 25.552 130.89 26.632 130.89 28C130.89 29.368 131.082 30.46 131.466 31.276C131.874 32.068 132.546 32.464 133.482 32.464ZM145.635 37V19H150.675L151.107 22.096H151.251C151.923 20.872 152.715 19.984 153.627 19.432C154.563 18.856 155.475 18.568 156.363 18.568C156.915 18.568 157.359 18.604 157.695 18.676C158.055 18.724 158.355 18.808 158.595 18.928L157.587 24.256C157.275 24.184 156.963 24.124 156.651 24.076C156.339 24.004 155.979 23.968 155.571 23.968C154.923 23.968 154.239 24.196 153.519 24.652C152.823 25.084 152.259 25.864 151.827 26.992V37H145.635Z" fill="#0D0D0D"/>
<g filter="url(#filter0_d_414_827)">
<circle cx="24" cy="24" r="20" fill="black"/>
</g>
<path d="M15.829 30.5582L20.3466 13.6984L32.1024 16.8483L31.2156 20.1577L23.5349 18.0997L22.6084 21.5573L29.6882 23.4543L28.7992 26.7719L21.7194 24.8749L20.7908 28.3407L28.4715 30.3988L27.5848 33.7081L15.829 30.5582Z" fill="white"/>
<defs>
<filter id="filter0_d_414_827" x="0" y="3" width="48" height="48" filterUnits="userSpaceOnUse" color-interpolation-filters="sRGB">
<feFlood flood-opacity="0" result="BackgroundImageFix"/>
<feColorMatrix in="SourceAlpha" type="matrix" values="0 0 0 0 0 0 0 0 0 0 0 0 0 0 0 0 0 0 127 0" result="hardAlpha"/>
<feOffset dy="3"/>
<feGaussianBlur stdDeviation="2"/>
<feComposite in2="hardAlpha" operator="out"/>
<feColorMatrix type="matrix" values="0 0 0 0 0 0 0 0 0 0 0 0 0 0 0 0 0 0 0.25 0"/>
<feBlend mode="normal" in2="BackgroundImageFix" result="effect1_dropShadow_414_827"/>
<feBlend mode="normal" in="SourceGraphic" in2="effect1_dropShadow_414_827" result="shape"/>
</filter>
</defs>
</svg>
